ISO-10303-21;
HEADER;
FILE_DESCRIPTION(('FreeCAD Model'),'2;1');
FILE_NAME('Open CASCADE Shape Model','2026-06-11T12:35:18',(''),(''),
  'Open CASCADE STEP processor 7.8','FreeCAD','Unknown');
FILE_SCHEMA(('AUTOMOTIVE_DESIGN { 1 0 10303 214 1 1 1 1 }'));
ENDSEC;
DATA;
#1 = APPLICATION_PROTOCOL_DEFINITION('international standard',
  'automotive_design',2000,#2);
#2 = APPLICATION_CONTEXT(
  'core data for automotive mechanical design processes');
#3 = SHAPE_DEFINITION_REPRESENTATION(#4,#10);
#4 = PRODUCT_DEFINITION_SHAPE('','',#5);
#5 = PRODUCT_DEFINITION('design','',#6,#9);
#6 = PRODUCT_DEFINITION_FORMATION('','',#7);
#7 = PRODUCT('M2x4-Screw','M2x4-Screw','',(#8));
#8 = PRODUCT_CONTEXT('',#2,'mechanical');
#9 = PRODUCT_DEFINITION_CONTEXT('part definition',#2,'design');
#10 = ADVANCED_BREP_SHAPE_REPRESENTATION('',(#11,#15),#872);
#11 = AXIS2_PLACEMENT_3D('',#12,#13,#14);
#12 = CARTESIAN_POINT('',(0.,0.,0.));
#13 = DIRECTION('',(0.,0.,1.));
#14 = DIRECTION('',(1.,0.,-0.));
#15 = MANIFOLD_SOLID_BREP('',#16);
#16 = CLOSED_SHELL('',(#17,#222,#254,#280,#306,#331,#356,#381,#407,#433,
    #458,#483,#508,#534,#560,#585,#610,#635,#661,#687,#712,#730,#755,
    #792,#812,#838,#863));
#17 = ADVANCED_FACE('',(#18),#217,.T.);
#18 = FACE_BOUND('',#19,.F.);
#19 = EDGE_LOOP('',(#20,#31,#40,#47,#48,#57,#66,#75,#84,#93,#102,#111,
    #120,#129,#138,#147,#156,#165,#174,#183,#192,#201,#210));
#20 = ORIENTED_EDGE('',*,*,#21,.T.);
#21 = EDGE_CURVE('',#22,#24,#26,.T.);
#22 = VERTEX_POINT('',#23);
#23 = CARTESIAN_POINT('',(0.507683828847,-0.13,1.556795389303));
#24 = VERTEX_POINT('',#25);
#25 = CARTESIAN_POINT('',(0.459388471493,0.,1.566853680273));
#26 = CIRCLE('',#27,3.199329677001);
#27 = AXIS2_PLACEMENT_3D('',#28,#29,#30);
#28 = CARTESIAN_POINT('',(6.080447494533E-02,2.316667342683E-02,
    -1.607465850757));
#29 = DIRECTION('',(-0.928380992663,-0.353715730496,0.113990852535));
#30 = DIRECTION('',(0.356036447518,-0.934472069159,0.));
#31 = ORIENTED_EDGE('',*,*,#32,.T.);
#32 = EDGE_CURVE('',#24,#33,#35,.T.);
#33 = VERTEX_POINT('',#34);
#34 = CARTESIAN_POINT('',(2.,0.,0.897999199359));
#35 = CIRCLE('',#36,3.2);
#36 = AXIS2_PLACEMENT_3D('',#37,#38,#39);
#37 = CARTESIAN_POINT('',(-3.386180225107E-15,0.,-1.6));
#38 = DIRECTION('',(0.,1.,0.));
#39 = DIRECTION('',(1.058181320346E-15,-0.,1.));
#40 = ORIENTED_EDGE('',*,*,#41,.F.);
#41 = EDGE_CURVE('',#33,#33,#42,.T.);
#42 = CIRCLE('',#43,2.);
#43 = AXIS2_PLACEMENT_3D('',#44,#45,#46);
#44 = CARTESIAN_POINT('',(0.,0.,0.897999199359));
#45 = DIRECTION('',(0.,0.,1.));
#46 = DIRECTION('',(1.,0.,-0.));
#47 = ORIENTED_EDGE('',*,*,#32,.F.);
#48 = ORIENTED_EDGE('',*,*,#49,.T.);
#49 = EDGE_CURVE('',#24,#50,#52,.T.);
#50 = VERTEX_POINT('',#51);
#51 = CARTESIAN_POINT('',(0.507683828847,0.13,1.556795389303));
#52 = CIRCLE('',#53,3.199329677001);
#53 = AXIS2_PLACEMENT_3D('',#54,#55,#56);
#54 = CARTESIAN_POINT('',(6.080447494533E-02,-2.316667342683E-02,
    -1.607465850757));
#55 = DIRECTION('',(-0.928380992663,0.353715730496,0.113990852535));
#56 = DIRECTION('',(-0.356036447518,-0.934472069159,0.));
#57 = ORIENTED_EDGE('',*,*,#58,.T.);
#58 = EDGE_CURVE('',#50,#59,#61,.T.);
#59 = VERTEX_POINT('',#60);
#60 = CARTESIAN_POINT('',(0.812483514852,0.492311423892,1.45573231812));
#61 = CIRCLE('',#62,3.199996561747);
#62 = AXIS2_PLACEMENT_3D('',#63,#64,#65);
#63 = CARTESIAN_POINT('',(3.514419752005E-03,-3.076923179166E-03,
    -1.600431516486));
#64 = DIRECTION('',(-0.749194930912,0.655930540829,9.198957062268E-02));
#65 = DIRECTION('',(-0.65872354809,-0.752385065768,-6.938893903907E-18)
  );
#66 = ORIENTED_EDGE('',*,*,#67,.F.);
#67 = EDGE_CURVE('',#68,#59,#70,.T.);
#68 = VERTEX_POINT('',#69);
#69 = CARTESIAN_POINT('',(0.492311423892,0.812483514852,1.45573231812));
#70 = CIRCLE('',#71,0.95);
#71 = AXIS2_PLACEMENT_3D('',#72,#73,#74);
#72 = CARTESIAN_POINT('',(5.608878998788E-15,0.,1.45573231812));
#73 = DIRECTION('',(-2.943667274308E-15,0.,-1.));
#74 = DIRECTION('',(1.,0.,-2.943667274308E-15));
#75 = ORIENTED_EDGE('',*,*,#76,.T.);
#76 = EDGE_CURVE('',#68,#77,#79,.T.);
#77 = VERTEX_POINT('',#78);
#78 = CARTESIAN_POINT('',(0.13,0.507683828847,1.556795389303));
#79 = CIRCLE('',#80,3.199996561747);
#80 = AXIS2_PLACEMENT_3D('',#81,#82,#83);
#81 = CARTESIAN_POINT('',(-3.076923179167E-03,3.514419752005E-03,
    -1.600431516486));
#82 = DIRECTION('',(0.655930540829,-0.749194930912,9.198957062268E-02));
#83 = DIRECTION('',(0.752385065768,0.65872354809,6.938893903907E-18));
#84 = ORIENTED_EDGE('',*,*,#85,.T.);
#85 = EDGE_CURVE('',#77,#86,#88,.T.);
#86 = VERTEX_POINT('',#87);
#87 = CARTESIAN_POINT('',(5.100236582984E-17,0.459388471493,
    1.566853680273));
#88 = CIRCLE('',#89,3.199329677001);
#89 = AXIS2_PLACEMENT_3D('',#90,#91,#92);
#90 = CARTESIAN_POINT('',(-2.316667342683E-02,6.080447494533E-02,
    -1.607465850757));
#91 = DIRECTION('',(0.353715730496,-0.928380992663,0.113990852535));
#92 = DIRECTION('',(0.934472069159,0.356036447518,0.));
#93 = ORIENTED_EDGE('',*,*,#94,.T.);
#94 = EDGE_CURVE('',#86,#95,#97,.T.);
#95 = VERTEX_POINT('',#96);
#96 = CARTESIAN_POINT('',(-0.13,0.507683828847,1.556795389303));
#97 = CIRCLE('',#98,3.199329677001);
#98 = AXIS2_PLACEMENT_3D('',#99,#100,#101);
#99 = CARTESIAN_POINT('',(2.316667342683E-02,6.080447494534E-02,
    -1.607465850757));
#100 = DIRECTION('',(-0.353715730496,-0.928380992663,0.113990852535));
#101 = DIRECTION('',(0.934472069159,-0.356036447518,0.));
#102 = ORIENTED_EDGE('',*,*,#103,.T.);
#103 = EDGE_CURVE('',#95,#104,#106,.T.);
#104 = VERTEX_POINT('',#105);
#105 = CARTESIAN_POINT('',(-0.492311423892,0.812483514852,1.45573231812)
  );
#106 = CIRCLE('',#107,3.199996561747);
#107 = AXIS2_PLACEMENT_3D('',#108,#109,#110);
#108 = CARTESIAN_POINT('',(3.076923179163E-03,3.514419752008E-03,
    -1.600431516486));
#109 = DIRECTION('',(-0.655930540829,-0.749194930912,9.198957062268E-02)
  );
#110 = DIRECTION('',(0.752385065768,-0.65872354809,0.));
#111 = ORIENTED_EDGE('',*,*,#112,.F.);
#112 = EDGE_CURVE('',#113,#104,#115,.T.);
#113 = VERTEX_POINT('',#114);
#114 = CARTESIAN_POINT('',(-0.812483514852,0.492311423892,1.45573231812)
  );
#115 = CIRCLE('',#116,0.95);
#116 = AXIS2_PLACEMENT_3D('',#117,#118,#119);
#117 = CARTESIAN_POINT('',(5.608878998788E-15,0.,1.45573231812));
#118 = DIRECTION('',(-2.943667274308E-15,0.,-1.));
#119 = DIRECTION('',(1.,0.,-2.943667274308E-15));
#120 = ORIENTED_EDGE('',*,*,#121,.T.);
#121 = EDGE_CURVE('',#113,#122,#124,.T.);
#122 = VERTEX_POINT('',#123);
#123 = CARTESIAN_POINT('',(-0.507683828847,0.13,1.556795389303));
#124 = CIRCLE('',#125,3.199996561747);
#125 = AXIS2_PLACEMENT_3D('',#126,#127,#128);
#126 = CARTESIAN_POINT('',(-3.514419752008E-03,-3.076923179163E-03,
    -1.600431516486));
#127 = DIRECTION('',(0.749194930912,0.655930540829,9.198957062268E-02));
#128 = DIRECTION('',(-0.65872354809,0.752385065768,6.938893903907E-18));
#129 = ORIENTED_EDGE('',*,*,#130,.T.);
#130 = EDGE_CURVE('',#122,#131,#133,.T.);
#131 = VERTEX_POINT('',#132);
#132 = CARTESIAN_POINT('',(-0.459388471493,5.625886211786E-17,
    1.566853680273));
#133 = CIRCLE('',#134,3.199329677001);
#134 = AXIS2_PLACEMENT_3D('',#135,#136,#137);
#135 = CARTESIAN_POINT('',(-6.080447494533E-02,-2.316667342683E-02,
    -1.607465850757));
#136 = DIRECTION('',(0.928380992663,0.353715730496,0.113990852535));
#137 = DIRECTION('',(-0.356036447518,0.934472069159,0.));
#138 = ORIENTED_EDGE('',*,*,#139,.T.);
#139 = EDGE_CURVE('',#131,#140,#142,.T.);
#140 = VERTEX_POINT('',#141);
#141 = CARTESIAN_POINT('',(-0.507683828847,-0.13,1.556795389303));
#142 = CIRCLE('',#143,3.199329677001);
#143 = AXIS2_PLACEMENT_3D('',#144,#145,#146);
#144 = CARTESIAN_POINT('',(-6.080447494533E-02,2.316667342683E-02,
    -1.607465850757));
#145 = DIRECTION('',(0.928380992663,-0.353715730496,0.113990852535));
#146 = DIRECTION('',(0.356036447518,0.934472069159,0.));
#147 = ORIENTED_EDGE('',*,*,#148,.T.);
#148 = EDGE_CURVE('',#140,#149,#151,.T.);
#149 = VERTEX_POINT('',#150);
#150 = CARTESIAN_POINT('',(-0.812483514852,-0.492311423892,1.45573231812
    ));
#151 = CIRCLE('',#152,3.199996561747);
#152 = AXIS2_PLACEMENT_3D('',#153,#154,#155);
#153 = CARTESIAN_POINT('',(-3.514419752008E-03,3.076923179163E-03,
    -1.600431516486));
#154 = DIRECTION('',(0.749194930912,-0.655930540829,9.198957062268E-02)
  );
#155 = DIRECTION('',(0.65872354809,0.752385065768,0.));
#156 = ORIENTED_EDGE('',*,*,#157,.F.);
#157 = EDGE_CURVE('',#158,#149,#160,.T.);
#158 = VERTEX_POINT('',#159);
#159 = CARTESIAN_POINT('',(-0.492311423892,-0.812483514852,1.45573231812
    ));
#160 = CIRCLE('',#161,0.95);
#161 = AXIS2_PLACEMENT_3D('',#162,#163,#164);
#162 = CARTESIAN_POINT('',(5.608878998788E-15,0.,1.45573231812));
#163 = DIRECTION('',(-2.943667274308E-15,0.,-1.));
#164 = DIRECTION('',(1.,0.,-2.943667274308E-15));
#165 = ORIENTED_EDGE('',*,*,#166,.T.);
#166 = EDGE_CURVE('',#158,#167,#169,.T.);
#167 = VERTEX_POINT('',#168);
#168 = CARTESIAN_POINT('',(-0.13,-0.507683828847,1.556795389303));
#169 = CIRCLE('',#170,3.199996561747);
#170 = AXIS2_PLACEMENT_3D('',#171,#172,#173);
#171 = CARTESIAN_POINT('',(3.076923179163E-03,-3.514419752008E-03,
    -1.600431516486));
#172 = DIRECTION('',(-0.655930540829,0.749194930912,9.198957062268E-02)
  );
#173 = DIRECTION('',(-0.752385065768,-0.65872354809,6.938893903907E-18)
  );
#174 = ORIENTED_EDGE('',*,*,#175,.T.);
#175 = EDGE_CURVE('',#167,#176,#178,.T.);
#176 = VERTEX_POINT('',#177);
#177 = CARTESIAN_POINT('',(-1.020047316597E-16,-0.459388471493,
    1.566853680273));
#178 = CIRCLE('',#179,3.199329677001);
#179 = AXIS2_PLACEMENT_3D('',#180,#181,#182);
#180 = CARTESIAN_POINT('',(2.316667342683E-02,-6.080447494534E-02,
    -1.607465850757));
#181 = DIRECTION('',(-0.353715730496,0.928380992663,0.113990852535));
#182 = DIRECTION('',(-0.934472069159,-0.356036447518,0.));
#183 = ORIENTED_EDGE('',*,*,#184,.T.);
#184 = EDGE_CURVE('',#176,#185,#187,.T.);
#185 = VERTEX_POINT('',#186);
#186 = CARTESIAN_POINT('',(0.13,-0.507683828847,1.556795389303));
#187 = CIRCLE('',#188,3.199329677001);
#188 = AXIS2_PLACEMENT_3D('',#189,#190,#191);
#189 = CARTESIAN_POINT('',(-2.316667342683E-02,-6.080447494533E-02,
    -1.607465850757));
#190 = DIRECTION('',(0.353715730496,0.928380992663,0.113990852535));
#191 = DIRECTION('',(-0.934472069159,0.356036447518,0.));
#192 = ORIENTED_EDGE('',*,*,#193,.T.);
#193 = EDGE_CURVE('',#185,#194,#196,.T.);
#194 = VERTEX_POINT('',#195);
#195 = CARTESIAN_POINT('',(0.492311423892,-0.812483514852,1.45573231812)
  );
#196 = CIRCLE('',#197,3.199996561747);
#197 = AXIS2_PLACEMENT_3D('',#198,#199,#200);
#198 = CARTESIAN_POINT('',(-3.076923179167E-03,-3.514419752005E-03,
    -1.600431516486));
#199 = DIRECTION('',(0.655930540829,0.749194930912,9.198957062268E-02));
#200 = DIRECTION('',(-0.752385065768,0.65872354809,0.));
#201 = ORIENTED_EDGE('',*,*,#202,.F.);
#202 = EDGE_CURVE('',#203,#194,#205,.T.);
#203 = VERTEX_POINT('',#204);
#204 = CARTESIAN_POINT('',(0.812483514852,-0.492311423892,1.45573231812)
  );
#205 = CIRCLE('',#206,0.95);
#206 = AXIS2_PLACEMENT_3D('',#207,#208,#209);
#207 = CARTESIAN_POINT('',(5.608878998788E-15,0.,1.45573231812));
#208 = DIRECTION('',(-2.943667274308E-15,0.,-1.));
#209 = DIRECTION('',(1.,0.,-2.943667274308E-15));
#210 = ORIENTED_EDGE('',*,*,#211,.T.);
#211 = EDGE_CURVE('',#203,#22,#212,.T.);
#212 = CIRCLE('',#213,3.199996561747);
#213 = AXIS2_PLACEMENT_3D('',#214,#215,#216);
#214 = CARTESIAN_POINT('',(3.514419752005E-03,3.076923179166E-03,
    -1.600431516486));
#215 = DIRECTION('',(-0.749194930912,-0.655930540829,9.198957062268E-02)
  );
#216 = DIRECTION('',(0.65872354809,-0.752385065768,6.938893903907E-18));
#217 = SPHERICAL_SURFACE('',#218,3.2);
#218 = AXIS2_PLACEMENT_3D('',#219,#220,#221);
#219 = CARTESIAN_POINT('',(-3.386180225107E-15,0.,-1.6));
#220 = DIRECTION('',(-0.,-0.,-1.));
#221 = DIRECTION('',(1.,0.,-0.));
#222 = ADVANCED_FACE('',(#223),#249,.T.);
#223 = FACE_BOUND('',#224,.T.);
#224 = EDGE_LOOP('',(#225,#233,#234,#242));
#225 = ORIENTED_EDGE('',*,*,#226,.F.);
#226 = EDGE_CURVE('',#22,#227,#229,.T.);
#227 = VERTEX_POINT('',#228);
#228 = CARTESIAN_POINT('',(0.359580792358,-0.13,0.350592953098));
#229 = LINE('',#230,#231);
#230 = CARTESIAN_POINT('',(0.611920176886,-0.13,2.40573231812));
#231 = VECTOR('',#232,1.);
#232 = DIRECTION('',(-0.121869343405,0.,-0.992546151641));
#233 = ORIENTED_EDGE('',*,*,#21,.T.);
#234 = ORIENTED_EDGE('',*,*,#235,.T.);
#235 = EDGE_CURVE('',#24,#236,#238,.T.);
#236 = VERTEX_POINT('',#237);
#237 = CARTESIAN_POINT('',(0.305,0.,0.309460483952));
#238 = LINE('',#239,#240);
#239 = CARTESIAN_POINT('',(0.562389816691,0.,2.40573231812));
#240 = VECTOR('',#241,1.);
#241 = DIRECTION('',(-0.121869343405,0.,-0.992546151641));
#242 = ORIENTED_EDGE('',*,*,#243,.F.);
#243 = EDGE_CURVE('',#227,#236,#244,.T.);
#244 = HYPERBOLA('',#245,0.143112947987,0.266903803707);
#245 = AXIS2_PLACEMENT_3D('',#246,#247,#248);
#246 = CARTESIAN_POINT('',(0.249879601157,9.520482038934E-02,
    0.155963184707));
#247 = DIRECTION('',(-0.928380992663,-0.353715730496,0.113990852535));
#248 = DIRECTION('',(0.106521267833,4.058489818597E-02,0.993481799299));
#249 = PLANE('',#250);
#250 = AXIS2_PLACEMENT_3D('',#251,#252,#253);
#251 = CARTESIAN_POINT('',(0.448504017806,-6.5E-02,1.276510712707));
#252 = DIRECTION('',(-0.928380992663,-0.353715730496,0.113990852535));
#253 = DIRECTION('',(-0.356036447518,0.934472069159,0.));
#254 = ADVANCED_FACE('',(#255),#275,.T.);
#255 = FACE_BOUND('',#256,.T.);
#256 = EDGE_LOOP('',(#257,#266,#267,#268));
#257 = ORIENTED_EDGE('',*,*,#258,.F.);
#258 = EDGE_CURVE('',#203,#259,#261,.T.);
#259 = VERTEX_POINT('',#260);
#260 = CARTESIAN_POINT('',(0.376936366688,-0.148134990696,0.362631427118
    ));
#261 = HYPERBOLA('',#262,0.231485710845,0.11293513947);
#262 = AXIS2_PLACEMENT_3D('',#263,#264,#265);
#263 = CARTESIAN_POINT('',(8.646797180524E-02,7.570390718155E-02,
    -0.406963204244));
#264 = DIRECTION('',(-0.749194930912,-0.655930540829,9.198957062268E-02)
  );
#265 = DIRECTION('',(6.921157914296E-02,6.059569634788E-02,
    0.995759970523));
#266 = ORIENTED_EDGE('',*,*,#211,.T.);
#267 = ORIENTED_EDGE('',*,*,#226,.T.);
#268 = ORIENTED_EDGE('',*,*,#269,.F.);
#269 = EDGE_CURVE('',#259,#227,#270,.T.);
#270 = HYPERBOLA('',#271,8.892233238956E-02,0.166328467052);
#271 = AXIS2_PLACEMENT_3D('',#272,#273,#274);
#272 = CARTESIAN_POINT('',(0.1252942993,0.109696894775,0.151638451725));
#273 = DIRECTION('',(-0.749194930912,-0.655930540829,9.198957062268E-02)
  );
#274 = DIRECTION('',(6.921157914296E-02,6.059569634788E-02,
    0.995759970523));
#275 = PLANE('',#276);
#276 = AXIS2_PLACEMENT_3D('',#277,#278,#279);
#277 = CARTESIAN_POINT('',(1.130635541653,-0.880834885454,1.276510712707
    ));
#278 = DIRECTION('',(-0.749194930912,-0.655930540829,9.198957062268E-02)
  );
#279 = DIRECTION('',(-0.65872354809,0.752385065768,6.938893903907E-18));
#280 = ADVANCED_FACE('',(#281),#301,.F.);
#281 = FACE_BOUND('',#282,.T.);
#282 = EDGE_LOOP('',(#283,#292,#299,#300));
#283 = ORIENTED_EDGE('',*,*,#284,.F.);
#284 = EDGE_CURVE('',#285,#259,#287,.T.);
#285 = VERTEX_POINT('',#286);
#286 = CARTESIAN_POINT('',(0.148134990696,-0.376936366688,0.362631427118
    ));
#287 = CIRCLE('',#288,0.405);
#288 = AXIS2_PLACEMENT_3D('',#289,#290,#291);
#289 = CARTESIAN_POINT('',(0.,0.,0.362631427118));
#290 = DIRECTION('',(0.,0.,1.));
#291 = DIRECTION('',(1.,0.,-0.));
#292 = ORIENTED_EDGE('',*,*,#293,.T.);
#293 = EDGE_CURVE('',#285,#194,#294,.T.);
#294 = HYPERBOLA('',#295,0.231485710845,0.11293513947);
#295 = AXIS2_PLACEMENT_3D('',#296,#297,#298);
#296 = CARTESIAN_POINT('',(-7.570390718155E-02,-8.646797180524E-02,
    -0.406963204244));
#297 = DIRECTION('',(0.655930540829,0.749194930912,9.198957062268E-02));
#298 = DIRECTION('',(-6.059569634788E-02,-6.921157914296E-02,
    0.995759970523));
#299 = ORIENTED_EDGE('',*,*,#202,.F.);
#300 = ORIENTED_EDGE('',*,*,#258,.T.);
#301 = CONICAL_SURFACE('',#302,1.186826263825,0.462512251778);
#302 = AXIS2_PLACEMENT_3D('',#303,#304,#305);
#303 = CARTESIAN_POINT('',(0.,0.,1.93073231812));
#304 = DIRECTION('',(0.,0.,1.));
#305 = DIRECTION('',(1.,0.,0.));
#306 = ADVANCED_FACE('',(#307),#326,.T.);
#307 = FACE_BOUND('',#308,.T.);
#308 = EDGE_LOOP('',(#309,#317,#318,#319));
#309 = ORIENTED_EDGE('',*,*,#310,.F.);
#310 = EDGE_CURVE('',#185,#311,#313,.T.);
#311 = VERTEX_POINT('',#312);
#312 = CARTESIAN_POINT('',(0.13,-0.359580792358,0.350592953098));
#313 = LINE('',#314,#315);
#314 = CARTESIAN_POINT('',(0.13,-0.611920176886,2.40573231812));
#315 = VECTOR('',#316,1.);
#316 = DIRECTION('',(2.706043020887E-17,0.121869343405,-0.992546151641)
  );
#317 = ORIENTED_EDGE('',*,*,#193,.T.);
#318 = ORIENTED_EDGE('',*,*,#293,.F.);
#319 = ORIENTED_EDGE('',*,*,#320,.F.);
#320 = EDGE_CURVE('',#311,#285,#321,.T.);
#321 = HYPERBOLA('',#322,8.892233238956E-02,0.166328467052);
#322 = AXIS2_PLACEMENT_3D('',#323,#324,#325);
#323 = CARTESIAN_POINT('',(-0.109696894775,-0.1252942993,0.151638451725)
  );
#324 = DIRECTION('',(0.655930540829,0.749194930912,9.198957062268E-02));
#325 = DIRECTION('',(-6.059569634788E-02,-6.921157914296E-02,
    0.995759970523));
#326 = PLANE('',#327);
#327 = AXIS2_PLACEMENT_3D('',#328,#329,#330);
#328 = CARTESIAN_POINT('',(0.880834885454,-1.130635541653,1.276510712707
    ));
#329 = DIRECTION('',(0.655930540829,0.749194930912,9.198957062268E-02));
#330 = DIRECTION('',(0.752385065768,-0.65872354809,-6.938893903907E-18)
  );
#331 = ADVANCED_FACE('',(#332),#351,.T.);
#332 = FACE_BOUND('',#333,.T.);
#333 = EDGE_LOOP('',(#334,#342,#343,#344));
#334 = ORIENTED_EDGE('',*,*,#335,.F.);
#335 = EDGE_CURVE('',#176,#336,#338,.T.);
#336 = VERTEX_POINT('',#337);
#337 = CARTESIAN_POINT('',(-6.772360450213E-17,-0.305,0.309460483952));
#338 = LINE('',#339,#340);
#339 = CARTESIAN_POINT('',(-1.248756246611E-16,-0.562389816691,
    2.40573231812));
#340 = VECTOR('',#341,1.);
#341 = DIRECTION('',(2.706043020887E-17,0.121869343405,-0.992546151641)
  );
#342 = ORIENTED_EDGE('',*,*,#184,.T.);
#343 = ORIENTED_EDGE('',*,*,#310,.T.);
#344 = ORIENTED_EDGE('',*,*,#345,.F.);
#345 = EDGE_CURVE('',#336,#311,#346,.T.);
#346 = HYPERBOLA('',#347,0.143112947987,0.266903803707);
#347 = AXIS2_PLACEMENT_3D('',#348,#349,#350);
#348 = CARTESIAN_POINT('',(-9.520482038934E-02,-0.249879601157,
    0.155963184707));
#349 = DIRECTION('',(0.353715730496,0.928380992663,0.113990852535));
#350 = DIRECTION('',(-4.058489818597E-02,-0.106521267833,0.993481799299)
  );
#351 = PLANE('',#352);
#352 = AXIS2_PLACEMENT_3D('',#353,#354,#355);
#353 = CARTESIAN_POINT('',(6.5E-02,-0.448504017806,1.276510712707));
#354 = DIRECTION('',(0.353715730496,0.928380992663,0.113990852535));
#355 = DIRECTION('',(0.934472069159,-0.356036447518,0.));
#356 = ADVANCED_FACE('',(#357),#376,.T.);
#357 = FACE_BOUND('',#358,.T.);
#358 = EDGE_LOOP('',(#359,#367,#368,#369));
#359 = ORIENTED_EDGE('',*,*,#360,.F.);
#360 = EDGE_CURVE('',#167,#361,#363,.T.);
#361 = VERTEX_POINT('',#362);
#362 = CARTESIAN_POINT('',(-0.13,-0.359580792358,0.350592953098));
#363 = LINE('',#364,#365);
#364 = CARTESIAN_POINT('',(-0.13,-0.611920176886,2.40573231812));
#365 = VECTOR('',#366,1.);
#366 = DIRECTION('',(2.706043020887E-17,0.121869343405,-0.992546151641)
  );
#367 = ORIENTED_EDGE('',*,*,#175,.T.);
#368 = ORIENTED_EDGE('',*,*,#335,.T.);
#369 = ORIENTED_EDGE('',*,*,#370,.F.);
#370 = EDGE_CURVE('',#361,#336,#371,.T.);
#371 = HYPERBOLA('',#372,0.143112947987,0.266903803707);
#372 = AXIS2_PLACEMENT_3D('',#373,#374,#375);
#373 = CARTESIAN_POINT('',(9.520482038934E-02,-0.249879601157,
    0.155963184707));
#374 = DIRECTION('',(-0.353715730496,0.928380992663,0.113990852535));
#375 = DIRECTION('',(4.058489818597E-02,-0.106521267833,0.993481799299)
  );
#376 = PLANE('',#377);
#377 = AXIS2_PLACEMENT_3D('',#378,#379,#380);
#378 = CARTESIAN_POINT('',(-6.5E-02,-0.448504017806,1.276510712707));
#379 = DIRECTION('',(-0.353715730496,0.928380992663,0.113990852535));
#380 = DIRECTION('',(0.934472069159,0.356036447518,0.));
#381 = ADVANCED_FACE('',(#382),#402,.T.);
#382 = FACE_BOUND('',#383,.T.);
#383 = EDGE_LOOP('',(#384,#393,#394,#395));
#384 = ORIENTED_EDGE('',*,*,#385,.F.);
#385 = EDGE_CURVE('',#158,#386,#388,.T.);
#386 = VERTEX_POINT('',#387);
#387 = CARTESIAN_POINT('',(-0.148134990696,-0.376936366688,
    0.362631427118));
#388 = HYPERBOLA('',#389,0.231485710845,0.11293513947);
#389 = AXIS2_PLACEMENT_3D('',#390,#391,#392);
#390 = CARTESIAN_POINT('',(7.570390718155E-02,-8.646797180524E-02,
    -0.406963204244));
#391 = DIRECTION('',(-0.655930540829,0.749194930912,9.198957062268E-02)
  );
#392 = DIRECTION('',(6.059569634788E-02,-6.921157914296E-02,
    0.995759970523));
#393 = ORIENTED_EDGE('',*,*,#166,.T.);
#394 = ORIENTED_EDGE('',*,*,#360,.T.);
#395 = ORIENTED_EDGE('',*,*,#396,.F.);
#396 = EDGE_CURVE('',#386,#361,#397,.T.);
#397 = HYPERBOLA('',#398,8.892233238956E-02,0.166328467052);
#398 = AXIS2_PLACEMENT_3D('',#399,#400,#401);
#399 = CARTESIAN_POINT('',(0.109696894775,-0.1252942993,0.151638451725)
  );
#400 = DIRECTION('',(-0.655930540829,0.749194930912,9.198957062268E-02)
  );
#401 = DIRECTION('',(6.059569634788E-02,-6.921157914296E-02,
    0.995759970523));
#402 = PLANE('',#403);
#403 = AXIS2_PLACEMENT_3D('',#404,#405,#406);
#404 = CARTESIAN_POINT('',(-0.880834885454,-1.130635541653,
    1.276510712707));
#405 = DIRECTION('',(-0.655930540829,0.749194930912,9.198957062268E-02)
  );
#406 = DIRECTION('',(0.752385065768,0.65872354809,6.938893903907E-18));
#407 = ADVANCED_FACE('',(#408),#428,.F.);
#408 = FACE_BOUND('',#409,.T.);
#409 = EDGE_LOOP('',(#410,#419,#426,#427));
#410 = ORIENTED_EDGE('',*,*,#411,.F.);
#411 = EDGE_CURVE('',#412,#386,#414,.T.);
#412 = VERTEX_POINT('',#413);
#413 = CARTESIAN_POINT('',(-0.376936366688,-0.148134990696,
    0.362631427118));
#414 = CIRCLE('',#415,0.405);
#415 = AXIS2_PLACEMENT_3D('',#416,#417,#418);
#416 = CARTESIAN_POINT('',(0.,0.,0.362631427118));
#417 = DIRECTION('',(0.,0.,1.));
#418 = DIRECTION('',(1.,0.,-0.));
#419 = ORIENTED_EDGE('',*,*,#420,.T.);
#420 = EDGE_CURVE('',#412,#149,#421,.T.);
#421 = HYPERBOLA('',#422,0.231485710845,0.11293513947);
#422 = AXIS2_PLACEMENT_3D('',#423,#424,#425);
#423 = CARTESIAN_POINT('',(-8.646797180524E-02,7.570390718155E-02,
    -0.406963204244));
#424 = DIRECTION('',(0.749194930912,-0.655930540829,9.198957062268E-02)
  );
#425 = DIRECTION('',(-6.921157914296E-02,6.059569634788E-02,
    0.995759970523));
#426 = ORIENTED_EDGE('',*,*,#157,.F.);
#427 = ORIENTED_EDGE('',*,*,#385,.T.);
#428 = CONICAL_SURFACE('',#429,1.186826263825,0.462512251778);
#429 = AXIS2_PLACEMENT_3D('',#430,#431,#432);
#430 = CARTESIAN_POINT('',(0.,0.,1.93073231812));
#431 = DIRECTION('',(0.,0.,1.));
#432 = DIRECTION('',(1.,0.,0.));
#433 = ADVANCED_FACE('',(#434),#453,.T.);
#434 = FACE_BOUND('',#435,.T.);
#435 = EDGE_LOOP('',(#436,#444,#445,#446));
#436 = ORIENTED_EDGE('',*,*,#437,.F.);
#437 = EDGE_CURVE('',#140,#438,#440,.T.);
#438 = VERTEX_POINT('',#439);
#439 = CARTESIAN_POINT('',(-0.359580792358,-0.13,0.350592953098));
#440 = LINE('',#441,#442);
#441 = CARTESIAN_POINT('',(-0.611920176886,-0.13,2.40573231812));
#442 = VECTOR('',#443,1.);
#443 = DIRECTION('',(0.121869343405,-1.492469013153E-17,-0.992546151641)
  );
#444 = ORIENTED_EDGE('',*,*,#148,.T.);
#445 = ORIENTED_EDGE('',*,*,#420,.F.);
#446 = ORIENTED_EDGE('',*,*,#447,.F.);
#447 = EDGE_CURVE('',#438,#412,#448,.T.);
#448 = HYPERBOLA('',#449,8.892233238956E-02,0.166328467052);
#449 = AXIS2_PLACEMENT_3D('',#450,#451,#452);
#450 = CARTESIAN_POINT('',(-0.1252942993,0.109696894775,0.151638451725)
  );
#451 = DIRECTION('',(0.749194930912,-0.655930540829,9.198957062268E-02)
  );
#452 = DIRECTION('',(-6.921157914296E-02,6.059569634788E-02,
    0.995759970523));
#453 = PLANE('',#454);
#454 = AXIS2_PLACEMENT_3D('',#455,#456,#457);
#455 = CARTESIAN_POINT('',(-1.130635541653,-0.880834885454,
    1.276510712707));
#456 = DIRECTION('',(0.749194930912,-0.655930540829,9.198957062268E-02)
  );
#457 = DIRECTION('',(-0.65872354809,-0.752385065768,-6.938893903907E-18)
  );
#458 = ADVANCED_FACE('',(#459),#478,.T.);
#459 = FACE_BOUND('',#460,.T.);
#460 = EDGE_LOOP('',(#461,#469,#470,#471));
#461 = ORIENTED_EDGE('',*,*,#462,.F.);
#462 = EDGE_CURVE('',#131,#463,#465,.T.);
#463 = VERTEX_POINT('',#464);
#464 = CARTESIAN_POINT('',(-0.305,3.735172737399E-17,0.309460483952));
#465 = LINE('',#466,#467);
#466 = CARTESIAN_POINT('',(-0.562389816691,6.887288888841E-17,
    2.40573231812));
#467 = VECTOR('',#468,1.);
#468 = DIRECTION('',(0.121869343405,-1.492469013153E-17,-0.992546151641)
  );
#469 = ORIENTED_EDGE('',*,*,#139,.T.);
#470 = ORIENTED_EDGE('',*,*,#437,.T.);
#471 = ORIENTED_EDGE('',*,*,#472,.F.);
#472 = EDGE_CURVE('',#463,#438,#473,.T.);
#473 = HYPERBOLA('',#474,0.143112947987,0.266903803707);
#474 = AXIS2_PLACEMENT_3D('',#475,#476,#477);
#475 = CARTESIAN_POINT('',(-0.249879601157,9.520482038934E-02,
    0.155963184707));
#476 = DIRECTION('',(0.928380992663,-0.353715730496,0.113990852535));
#477 = DIRECTION('',(-0.106521267833,4.058489818597E-02,0.993481799299)
  );
#478 = PLANE('',#479);
#479 = AXIS2_PLACEMENT_3D('',#480,#481,#482);
#480 = CARTESIAN_POINT('',(-0.448504017806,-6.5E-02,1.276510712707));
#481 = DIRECTION('',(0.928380992663,-0.353715730496,0.113990852535));
#482 = DIRECTION('',(-0.356036447518,-0.934472069159,0.));
#483 = ADVANCED_FACE('',(#484),#503,.T.);
#484 = FACE_BOUND('',#485,.T.);
#485 = EDGE_LOOP('',(#486,#494,#495,#496));
#486 = ORIENTED_EDGE('',*,*,#487,.F.);
#487 = EDGE_CURVE('',#122,#488,#490,.T.);
#488 = VERTEX_POINT('',#489);
#489 = CARTESIAN_POINT('',(-0.359580792358,0.13,0.350592953098));
#490 = LINE('',#491,#492);
#491 = CARTESIAN_POINT('',(-0.611920176886,0.13,2.40573231812));
#492 = VECTOR('',#493,1.);
#493 = DIRECTION('',(0.121869343405,-1.492469013153E-17,-0.992546151641)
  );
#494 = ORIENTED_EDGE('',*,*,#130,.T.);
#495 = ORIENTED_EDGE('',*,*,#462,.T.);
#496 = ORIENTED_EDGE('',*,*,#497,.F.);
#497 = EDGE_CURVE('',#488,#463,#498,.T.);
#498 = HYPERBOLA('',#499,0.143112947987,0.266903803707);
#499 = AXIS2_PLACEMENT_3D('',#500,#501,#502);
#500 = CARTESIAN_POINT('',(-0.249879601157,-9.520482038934E-02,
    0.155963184707));
#501 = DIRECTION('',(0.928380992663,0.353715730496,0.113990852535));
#502 = DIRECTION('',(-0.106521267833,-4.058489818597E-02,0.993481799299)
  );
#503 = PLANE('',#504);
#504 = AXIS2_PLACEMENT_3D('',#505,#506,#507);
#505 = CARTESIAN_POINT('',(-0.448504017806,6.5E-02,1.276510712707));
#506 = DIRECTION('',(0.928380992663,0.353715730496,0.113990852535));
#507 = DIRECTION('',(0.356036447518,-0.934472069159,0.));
#508 = ADVANCED_FACE('',(#509),#529,.T.);
#509 = FACE_BOUND('',#510,.T.);
#510 = EDGE_LOOP('',(#511,#520,#521,#522));
#511 = ORIENTED_EDGE('',*,*,#512,.F.);
#512 = EDGE_CURVE('',#113,#513,#515,.T.);
#513 = VERTEX_POINT('',#514);
#514 = CARTESIAN_POINT('',(-0.376936366688,0.148134990696,0.362631427118
    ));
#515 = HYPERBOLA('',#516,0.231485710845,0.11293513947);
#516 = AXIS2_PLACEMENT_3D('',#517,#518,#519);
#517 = CARTESIAN_POINT('',(-8.646797180524E-02,-7.570390718155E-02,
    -0.406963204244));
#518 = DIRECTION('',(0.749194930912,0.655930540829,9.198957062268E-02));
#519 = DIRECTION('',(-6.921157914296E-02,-6.059569634788E-02,
    0.995759970523));
#520 = ORIENTED_EDGE('',*,*,#121,.T.);
#521 = ORIENTED_EDGE('',*,*,#487,.T.);
#522 = ORIENTED_EDGE('',*,*,#523,.F.);
#523 = EDGE_CURVE('',#513,#488,#524,.T.);
#524 = HYPERBOLA('',#525,8.892233238956E-02,0.166328467052);
#525 = AXIS2_PLACEMENT_3D('',#526,#527,#528);
#526 = CARTESIAN_POINT('',(-0.1252942993,-0.109696894775,0.151638451725)
  );
#527 = DIRECTION('',(0.749194930912,0.655930540829,9.198957062268E-02));
#528 = DIRECTION('',(-6.921157914296E-02,-6.059569634788E-02,
    0.995759970523));
#529 = PLANE('',#530);
#530 = AXIS2_PLACEMENT_3D('',#531,#532,#533);
#531 = CARTESIAN_POINT('',(-1.130635541653,0.880834885454,1.276510712707
    ));
#532 = DIRECTION('',(0.749194930912,0.655930540829,9.198957062268E-02));
#533 = DIRECTION('',(0.65872354809,-0.752385065768,6.938893903907E-18));
#534 = ADVANCED_FACE('',(#535),#555,.F.);
#535 = FACE_BOUND('',#536,.T.);
#536 = EDGE_LOOP('',(#537,#546,#553,#554));
#537 = ORIENTED_EDGE('',*,*,#538,.F.);
#538 = EDGE_CURVE('',#539,#513,#541,.T.);
#539 = VERTEX_POINT('',#540);
#540 = CARTESIAN_POINT('',(-0.148134990696,0.376936366688,0.362631427118
    ));
#541 = CIRCLE('',#542,0.405);
#542 = AXIS2_PLACEMENT_3D('',#543,#544,#545);
#543 = CARTESIAN_POINT('',(0.,0.,0.362631427118));
#544 = DIRECTION('',(0.,0.,1.));
#545 = DIRECTION('',(1.,0.,-0.));
#546 = ORIENTED_EDGE('',*,*,#547,.T.);
#547 = EDGE_CURVE('',#539,#104,#548,.T.);
#548 = HYPERBOLA('',#549,0.231485710845,0.11293513947);
#549 = AXIS2_PLACEMENT_3D('',#550,#551,#552);
#550 = CARTESIAN_POINT('',(7.570390718155E-02,8.646797180524E-02,
    -0.406963204244));
#551 = DIRECTION('',(-0.655930540829,-0.749194930912,9.198957062268E-02)
  );
#552 = DIRECTION('',(6.059569634788E-02,6.921157914296E-02,
    0.995759970523));
#553 = ORIENTED_EDGE('',*,*,#112,.F.);
#554 = ORIENTED_EDGE('',*,*,#512,.T.);
#555 = CONICAL_SURFACE('',#556,1.186826263825,0.462512251778);
#556 = AXIS2_PLACEMENT_3D('',#557,#558,#559);
#557 = CARTESIAN_POINT('',(0.,0.,1.93073231812));
#558 = DIRECTION('',(0.,0.,1.));
#559 = DIRECTION('',(1.,0.,0.));
#560 = ADVANCED_FACE('',(#561),#580,.T.);
#561 = FACE_BOUND('',#562,.T.);
#562 = EDGE_LOOP('',(#563,#571,#572,#573));
#563 = ORIENTED_EDGE('',*,*,#564,.F.);
#564 = EDGE_CURVE('',#95,#565,#567,.T.);
#565 = VERTEX_POINT('',#566);
#566 = CARTESIAN_POINT('',(-0.13,0.359580792358,0.350592953098));
#567 = LINE('',#568,#569);
#568 = CARTESIAN_POINT('',(-0.13,0.611920176886,2.40573231812));
#569 = VECTOR('',#570,1.);
#570 = DIRECTION('',(-1.353021510443E-17,-0.121869343405,-0.992546151641
    ));
#571 = ORIENTED_EDGE('',*,*,#103,.T.);
#572 = ORIENTED_EDGE('',*,*,#547,.F.);
#573 = ORIENTED_EDGE('',*,*,#574,.F.);
#574 = EDGE_CURVE('',#565,#539,#575,.T.);
#575 = HYPERBOLA('',#576,8.892233238956E-02,0.166328467052);
#576 = AXIS2_PLACEMENT_3D('',#577,#578,#579);
#577 = CARTESIAN_POINT('',(0.109696894775,0.1252942993,0.151638451725));
#578 = DIRECTION('',(-0.655930540829,-0.749194930912,9.198957062268E-02)
  );
#579 = DIRECTION('',(6.059569634788E-02,6.921157914296E-02,
    0.995759970523));
#580 = PLANE('',#581);
#581 = AXIS2_PLACEMENT_3D('',#582,#583,#584);
#582 = CARTESIAN_POINT('',(-0.880834885454,1.130635541653,1.276510712707
    ));
#583 = DIRECTION('',(-0.655930540829,-0.749194930912,9.198957062268E-02)
  );
#584 = DIRECTION('',(-0.752385065768,0.65872354809,-6.938893903907E-18)
  );
#585 = ADVANCED_FACE('',(#586),#605,.T.);
#586 = FACE_BOUND('',#587,.T.);
#587 = EDGE_LOOP('',(#588,#596,#597,#598));
#588 = ORIENTED_EDGE('',*,*,#589,.F.);
#589 = EDGE_CURVE('',#86,#590,#592,.T.);
#590 = VERTEX_POINT('',#591);
#591 = CARTESIAN_POINT('',(3.386180225107E-17,0.305,0.309460483952));
#592 = LINE('',#593,#594);
#593 = CARTESIAN_POINT('',(6.243781233055E-17,0.562389816691,
    2.40573231812));
#594 = VECTOR('',#595,1.);
#595 = DIRECTION('',(-1.353021510443E-17,-0.121869343405,-0.992546151641
    ));
#596 = ORIENTED_EDGE('',*,*,#94,.T.);
#597 = ORIENTED_EDGE('',*,*,#564,.T.);
#598 = ORIENTED_EDGE('',*,*,#599,.F.);
#599 = EDGE_CURVE('',#590,#565,#600,.T.);
#600 = HYPERBOLA('',#601,0.143112947987,0.266903803707);
#601 = AXIS2_PLACEMENT_3D('',#602,#603,#604);
#602 = CARTESIAN_POINT('',(9.520482038934E-02,0.249879601157,
    0.155963184707));
#603 = DIRECTION('',(-0.353715730496,-0.928380992663,0.113990852535));
#604 = DIRECTION('',(4.058489818597E-02,0.106521267833,0.993481799299));
#605 = PLANE('',#606);
#606 = AXIS2_PLACEMENT_3D('',#607,#608,#609);
#607 = CARTESIAN_POINT('',(-6.5E-02,0.448504017806,1.276510712707));
#608 = DIRECTION('',(-0.353715730496,-0.928380992663,0.113990852535));
#609 = DIRECTION('',(-0.934472069159,0.356036447518,0.));
#610 = ADVANCED_FACE('',(#611),#630,.T.);
#611 = FACE_BOUND('',#612,.T.);
#612 = EDGE_LOOP('',(#613,#621,#622,#623));
#613 = ORIENTED_EDGE('',*,*,#614,.F.);
#614 = EDGE_CURVE('',#77,#615,#617,.T.);
#615 = VERTEX_POINT('',#616);
#616 = CARTESIAN_POINT('',(0.13,0.359580792358,0.350592953098));
#617 = LINE('',#618,#619);
#618 = CARTESIAN_POINT('',(0.13,0.611920176886,2.40573231812));
#619 = VECTOR('',#620,1.);
#620 = DIRECTION('',(-1.353021510443E-17,-0.121869343405,-0.992546151641
    ));
#621 = ORIENTED_EDGE('',*,*,#85,.T.);
#622 = ORIENTED_EDGE('',*,*,#589,.T.);
#623 = ORIENTED_EDGE('',*,*,#624,.F.);
#624 = EDGE_CURVE('',#615,#590,#625,.T.);
#625 = HYPERBOLA('',#626,0.143112947987,0.266903803707);
#626 = AXIS2_PLACEMENT_3D('',#627,#628,#629);
#627 = CARTESIAN_POINT('',(-9.520482038934E-02,0.249879601157,
    0.155963184707));
#628 = DIRECTION('',(0.353715730496,-0.928380992663,0.113990852535));
#629 = DIRECTION('',(-4.058489818597E-02,0.106521267833,0.993481799299)
  );
#630 = PLANE('',#631);
#631 = AXIS2_PLACEMENT_3D('',#632,#633,#634);
#632 = CARTESIAN_POINT('',(6.5E-02,0.448504017806,1.276510712707));
#633 = DIRECTION('',(0.353715730496,-0.928380992663,0.113990852535));
#634 = DIRECTION('',(-0.934472069159,-0.356036447518,0.));
#635 = ADVANCED_FACE('',(#636),#656,.T.);
#636 = FACE_BOUND('',#637,.T.);
#637 = EDGE_LOOP('',(#638,#647,#648,#649));
#638 = ORIENTED_EDGE('',*,*,#639,.F.);
#639 = EDGE_CURVE('',#68,#640,#642,.T.);
#640 = VERTEX_POINT('',#641);
#641 = CARTESIAN_POINT('',(0.148134990696,0.376936366688,0.362631427118)
  );
#642 = HYPERBOLA('',#643,0.231485710845,0.11293513947);
#643 = AXIS2_PLACEMENT_3D('',#644,#645,#646);
#644 = CARTESIAN_POINT('',(-7.570390718155E-02,8.646797180524E-02,
    -0.406963204244));
#645 = DIRECTION('',(0.655930540829,-0.749194930912,9.198957062268E-02)
  );
#646 = DIRECTION('',(-6.059569634788E-02,6.921157914296E-02,
    0.995759970523));
#647 = ORIENTED_EDGE('',*,*,#76,.T.);
#648 = ORIENTED_EDGE('',*,*,#614,.T.);
#649 = ORIENTED_EDGE('',*,*,#650,.F.);
#650 = EDGE_CURVE('',#640,#615,#651,.T.);
#651 = HYPERBOLA('',#652,8.892233238956E-02,0.166328467052);
#652 = AXIS2_PLACEMENT_3D('',#653,#654,#655);
#653 = CARTESIAN_POINT('',(-0.109696894775,0.1252942993,0.151638451725)
  );
#654 = DIRECTION('',(0.655930540829,-0.749194930912,9.198957062268E-02)
  );
#655 = DIRECTION('',(-6.059569634788E-02,6.921157914296E-02,
    0.995759970523));
#656 = PLANE('',#657);
#657 = AXIS2_PLACEMENT_3D('',#658,#659,#660);
#658 = CARTESIAN_POINT('',(0.880834885454,1.130635541653,1.276510712707)
  );
#659 = DIRECTION('',(0.655930540829,-0.749194930912,9.198957062268E-02)
  );
#660 = DIRECTION('',(-0.752385065768,-0.65872354809,6.938893903907E-18)
  );
#661 = ADVANCED_FACE('',(#662),#682,.F.);
#662 = FACE_BOUND('',#663,.T.);
#663 = EDGE_LOOP('',(#664,#673,#680,#681));
#664 = ORIENTED_EDGE('',*,*,#665,.F.);
#665 = EDGE_CURVE('',#666,#640,#668,.T.);
#666 = VERTEX_POINT('',#667);
#667 = CARTESIAN_POINT('',(0.376936366688,0.148134990696,0.362631427118)
  );
#668 = CIRCLE('',#669,0.405);
#669 = AXIS2_PLACEMENT_3D('',#670,#671,#672);
#670 = CARTESIAN_POINT('',(0.,0.,0.362631427118));
#671 = DIRECTION('',(0.,0.,1.));
#672 = DIRECTION('',(1.,0.,-0.));
#673 = ORIENTED_EDGE('',*,*,#674,.T.);
#674 = EDGE_CURVE('',#666,#59,#675,.T.);
#675 = HYPERBOLA('',#676,0.231485710845,0.11293513947);
#676 = AXIS2_PLACEMENT_3D('',#677,#678,#679);
#677 = CARTESIAN_POINT('',(8.646797180524E-02,-7.570390718155E-02,
    -0.406963204244));
#678 = DIRECTION('',(-0.749194930912,0.655930540829,9.198957062268E-02)
  );
#679 = DIRECTION('',(6.921157914296E-02,-6.059569634788E-02,
    0.995759970523));
#680 = ORIENTED_EDGE('',*,*,#67,.F.);
#681 = ORIENTED_EDGE('',*,*,#639,.T.);
#682 = CONICAL_SURFACE('',#683,1.186826263825,0.462512251778);
#683 = AXIS2_PLACEMENT_3D('',#684,#685,#686);
#684 = CARTESIAN_POINT('',(0.,0.,1.93073231812));
#685 = DIRECTION('',(0.,0.,1.));
#686 = DIRECTION('',(1.,0.,0.));
#687 = ADVANCED_FACE('',(#688),#707,.T.);
#688 = FACE_BOUND('',#689,.T.);
#689 = EDGE_LOOP('',(#690,#698,#699,#700));
#690 = ORIENTED_EDGE('',*,*,#691,.F.);
#691 = EDGE_CURVE('',#50,#692,#694,.T.);
#692 = VERTEX_POINT('',#693);
#693 = CARTESIAN_POINT('',(0.359580792358,0.13,0.350592953098));
#694 = LINE('',#695,#696);
#695 = CARTESIAN_POINT('',(0.611920176886,0.13,2.40573231812));
#696 = VECTOR('',#697,1.);
#697 = DIRECTION('',(-0.121869343405,0.,-0.992546151641));
#698 = ORIENTED_EDGE('',*,*,#58,.T.);
#699 = ORIENTED_EDGE('',*,*,#674,.F.);
#700 = ORIENTED_EDGE('',*,*,#701,.F.);
#701 = EDGE_CURVE('',#692,#666,#702,.T.);
#702 = HYPERBOLA('',#703,8.892233238956E-02,0.166328467052);
#703 = AXIS2_PLACEMENT_3D('',#704,#705,#706);
#704 = CARTESIAN_POINT('',(0.1252942993,-0.109696894775,0.151638451725)
  );
#705 = DIRECTION('',(-0.749194930912,0.655930540829,9.198957062268E-02)
  );
#706 = DIRECTION('',(6.921157914296E-02,-6.059569634788E-02,
    0.995759970523));
#707 = PLANE('',#708);
#708 = AXIS2_PLACEMENT_3D('',#709,#710,#711);
#709 = CARTESIAN_POINT('',(1.130635541653,0.880834885454,1.276510712707)
  );
#710 = DIRECTION('',(-0.749194930912,0.655930540829,9.198957062268E-02)
  );
#711 = DIRECTION('',(0.65872354809,0.752385065768,-6.938893903907E-18));
#712 = ADVANCED_FACE('',(#713),#725,.T.);
#713 = FACE_BOUND('',#714,.T.);
#714 = EDGE_LOOP('',(#715,#722,#723,#724));
#715 = ORIENTED_EDGE('',*,*,#716,.F.);
#716 = EDGE_CURVE('',#236,#692,#717,.T.);
#717 = HYPERBOLA('',#718,0.143112947987,0.266903803707);
#718 = AXIS2_PLACEMENT_3D('',#719,#720,#721);
#719 = CARTESIAN_POINT('',(0.249879601157,-9.520482038934E-02,
    0.155963184707));
#720 = DIRECTION('',(-0.928380992663,0.353715730496,0.113990852535));
#721 = DIRECTION('',(0.106521267833,-4.058489818597E-02,0.993481799299)
  );
#722 = ORIENTED_EDGE('',*,*,#235,.F.);
#723 = ORIENTED_EDGE('',*,*,#49,.T.);
#724 = ORIENTED_EDGE('',*,*,#691,.T.);
#725 = PLANE('',#726);
#726 = AXIS2_PLACEMENT_3D('',#727,#728,#729);
#727 = CARTESIAN_POINT('',(0.448504017806,6.5E-02,1.276510712707));
#728 = DIRECTION('',(-0.928380992663,0.353715730496,0.113990852535));
#729 = DIRECTION('',(0.356036447518,0.934472069159,0.));
#730 = ADVANCED_FACE('',(#731),#750,.T.);
#731 = FACE_BOUND('',#732,.F.);
#732 = EDGE_LOOP('',(#733,#734,#742,#749));
#733 = ORIENTED_EDGE('',*,*,#41,.T.);
#734 = ORIENTED_EDGE('',*,*,#735,.T.);
#735 = EDGE_CURVE('',#33,#736,#738,.T.);
#736 = VERTEX_POINT('',#737);
#737 = CARTESIAN_POINT('',(2.,0.,0.));
#738 = LINE('',#739,#740);
#739 = CARTESIAN_POINT('',(2.,0.,0.897999199359));
#740 = VECTOR('',#741,1.);
#741 = DIRECTION('',(-4.945318550026E-16,0.,-1.));
#742 = ORIENTED_EDGE('',*,*,#743,.F.);
#743 = EDGE_CURVE('',#736,#736,#744,.T.);
#744 = CIRCLE('',#745,2.);
#745 = AXIS2_PLACEMENT_3D('',#746,#747,#748);
#746 = CARTESIAN_POINT('',(0.,0.,0.));
#747 = DIRECTION('',(0.,0.,1.));
#748 = DIRECTION('',(1.,0.,-0.));
#749 = ORIENTED_EDGE('',*,*,#735,.F.);
#750 = CYLINDRICAL_SURFACE('',#751,2.);
#751 = AXIS2_PLACEMENT_3D('',#752,#753,#754);
#752 = CARTESIAN_POINT('',(0.,0.,0.897999199359));
#753 = DIRECTION('',(-0.,-0.,-1.));
#754 = DIRECTION('',(1.,0.,0.));
#755 = ADVANCED_FACE('',(#756),#787,.F.);
#756 = FACE_BOUND('',#757,.T.);
#757 = EDGE_LOOP('',(#758,#759,#767,#768,#769,#770,#771,#772,#773,#774,
    #775,#776,#777,#778,#779,#780,#781,#782,#783,#784,#785,#786));
#758 = ORIENTED_EDGE('',*,*,#243,.T.);
#759 = ORIENTED_EDGE('',*,*,#760,.T.);
#760 = EDGE_CURVE('',#236,#761,#763,.T.);
#761 = VERTEX_POINT('',#762);
#762 = CARTESIAN_POINT('',(0.,0.,0.147289107295));
#763 = LINE('',#764,#765);
#764 = CARTESIAN_POINT('',(0.405,0.,0.362631427118));
#765 = VECTOR('',#766,1.);
#766 = DIRECTION('',(-0.882947592859,0.,-0.469471562786));
#767 = ORIENTED_EDGE('',*,*,#760,.F.);
#768 = ORIENTED_EDGE('',*,*,#716,.T.);
#769 = ORIENTED_EDGE('',*,*,#701,.T.);
#770 = ORIENTED_EDGE('',*,*,#665,.T.);
#771 = ORIENTED_EDGE('',*,*,#650,.T.);
#772 = ORIENTED_EDGE('',*,*,#624,.T.);
#773 = ORIENTED_EDGE('',*,*,#599,.T.);
#774 = ORIENTED_EDGE('',*,*,#574,.T.);
#775 = ORIENTED_EDGE('',*,*,#538,.T.);
#776 = ORIENTED_EDGE('',*,*,#523,.T.);
#777 = ORIENTED_EDGE('',*,*,#497,.T.);
#778 = ORIENTED_EDGE('',*,*,#472,.T.);
#779 = ORIENTED_EDGE('',*,*,#447,.T.);
#780 = ORIENTED_EDGE('',*,*,#411,.T.);
#781 = ORIENTED_EDGE('',*,*,#396,.T.);
#782 = ORIENTED_EDGE('',*,*,#370,.T.);
#783 = ORIENTED_EDGE('',*,*,#345,.T.);
#784 = ORIENTED_EDGE('',*,*,#320,.T.);
#785 = ORIENTED_EDGE('',*,*,#284,.T.);
#786 = ORIENTED_EDGE('',*,*,#269,.T.);
#787 = CONICAL_SURFACE('',#788,0.405,1.082104136236);
#788 = AXIS2_PLACEMENT_3D('',#789,#790,#791);
#789 = CARTESIAN_POINT('',(0.,0.,0.362631427118));
#790 = DIRECTION('',(0.,0.,1.));
#791 = DIRECTION('',(1.,0.,0.));
#792 = ADVANCED_FACE('',(#793,#796),#807,.F.);
#793 = FACE_BOUND('',#794,.F.);
#794 = EDGE_LOOP('',(#795));
#795 = ORIENTED_EDGE('',*,*,#743,.T.);
#796 = FACE_BOUND('',#797,.F.);
#797 = EDGE_LOOP('',(#798));
#798 = ORIENTED_EDGE('',*,*,#799,.F.);
#799 = EDGE_CURVE('',#800,#800,#802,.T.);
#800 = VERTEX_POINT('',#801);
#801 = CARTESIAN_POINT('',(1.1,0.,-6.938893903907E-18));
#802 = CIRCLE('',#803,1.1);
#803 = AXIS2_PLACEMENT_3D('',#804,#805,#806);
#804 = CARTESIAN_POINT('',(0.,0.,-6.938893903907E-18));
#805 = DIRECTION('',(0.,0.,1.));
#806 = DIRECTION('',(1.,0.,-0.));
#807 = PLANE('',#808);
#808 = AXIS2_PLACEMENT_3D('',#809,#810,#811);
#809 = CARTESIAN_POINT('',(0.,0.,0.));
#810 = DIRECTION('',(0.,0.,1.));
#811 = DIRECTION('',(1.,0.,-0.));
#812 = ADVANCED_FACE('',(#813),#833,.F.);
#813 = FACE_BOUND('',#814,.F.);
#814 = EDGE_LOOP('',(#815,#816,#825,#832));
#815 = ORIENTED_EDGE('',*,*,#799,.T.);
#816 = ORIENTED_EDGE('',*,*,#817,.T.);
#817 = EDGE_CURVE('',#800,#818,#820,.T.);
#818 = VERTEX_POINT('',#819);
#819 = CARTESIAN_POINT('',(1.,0.,-1.E-01));
#820 = CIRCLE('',#821,0.1);
#821 = AXIS2_PLACEMENT_3D('',#822,#823,#824);
#822 = CARTESIAN_POINT('',(1.1,0.,-0.1));
#823 = DIRECTION('',(0.,-1.,0.));
#824 = DIRECTION('',(0.,0.,1.));
#825 = ORIENTED_EDGE('',*,*,#826,.F.);
#826 = EDGE_CURVE('',#818,#818,#827,.T.);
#827 = CIRCLE('',#828,1.);
#828 = AXIS2_PLACEMENT_3D('',#829,#830,#831);
#829 = CARTESIAN_POINT('',(0.,0.,-1.E-01));
#830 = DIRECTION('',(0.,0.,1.));
#831 = DIRECTION('',(1.,0.,-0.));
#832 = ORIENTED_EDGE('',*,*,#817,.F.);
#833 = TOROIDAL_SURFACE('',#834,1.1,0.1);
#834 = AXIS2_PLACEMENT_3D('',#835,#836,#837);
#835 = CARTESIAN_POINT('',(0.,0.,-0.1));
#836 = DIRECTION('',(0.,0.,1.));
#837 = DIRECTION('',(1.,0.,-0.));
#838 = ADVANCED_FACE('',(#839),#858,.T.);
#839 = FACE_BOUND('',#840,.F.);
#840 = EDGE_LOOP('',(#841,#842,#850,#857));
#841 = ORIENTED_EDGE('',*,*,#826,.T.);
#842 = ORIENTED_EDGE('',*,*,#843,.T.);
#843 = EDGE_CURVE('',#818,#844,#846,.T.);
#844 = VERTEX_POINT('',#845);
#845 = CARTESIAN_POINT('',(1.,0.,-4.));
#846 = LINE('',#847,#848);
#847 = CARTESIAN_POINT('',(1.,0.,-1.E-01));
#848 = VECTOR('',#849,1.);
#849 = DIRECTION('',(0.,0.,-1.));
#850 = ORIENTED_EDGE('',*,*,#851,.F.);
#851 = EDGE_CURVE('',#844,#844,#852,.T.);
#852 = CIRCLE('',#853,1.);
#853 = AXIS2_PLACEMENT_3D('',#854,#855,#856);
#854 = CARTESIAN_POINT('',(0.,0.,-4.));
#855 = DIRECTION('',(0.,0.,1.));
#856 = DIRECTION('',(1.,0.,-0.));
#857 = ORIENTED_EDGE('',*,*,#843,.F.);
#858 = CYLINDRICAL_SURFACE('',#859,1.);
#859 = AXIS2_PLACEMENT_3D('',#860,#861,#862);
#860 = CARTESIAN_POINT('',(0.,0.,-1.E-01));
#861 = DIRECTION('',(-0.,-0.,-1.));
#862 = DIRECTION('',(1.,0.,0.));
#863 = ADVANCED_FACE('',(#864),#867,.F.);
#864 = FACE_BOUND('',#865,.F.);
#865 = EDGE_LOOP('',(#866));
#866 = ORIENTED_EDGE('',*,*,#851,.T.);
#867 = PLANE('',#868);
#868 = AXIS2_PLACEMENT_3D('',#869,#870,#871);
#869 = CARTESIAN_POINT('',(0.,0.,-4.));
#870 = DIRECTION('',(0.,0.,1.));
#871 = DIRECTION('',(1.,0.,-0.));
#872 = ( GEOMETRIC_REPRESENTATION_CONTEXT(3) 
GLOBAL_UNCERTAINTY_ASSIGNED_CONTEXT((#876)) GLOBAL_UNIT_ASSIGNED_CONTEXT
((#873,#874,#875)) REPRESENTATION_CONTEXT('Context #1',
  '3D Context with UNIT and UNCERTAINTY') );
#873 = ( LENGTH_UNIT() NAMED_UNIT(*) SI_UNIT(.MILLI.,.METRE.) );
#874 = ( NAMED_UNIT(*) PLANE_ANGLE_UNIT() SI_UNIT($,.RADIAN.) );
#875 = ( NAMED_UNIT(*) SI_UNIT($,.STERADIAN.) SOLID_ANGLE_UNIT() );
#876 = UNCERTAINTY_MEASURE_WITH_UNIT(LENGTH_MEASURE(1.E-07),#873,
  'distance_accuracy_value','confusion accuracy');
#877 = PRODUCT_RELATED_PRODUCT_CATEGORY('part',$,(#7));
#878 = MECHANICAL_DESIGN_GEOMETRIC_PRESENTATION_REPRESENTATION('',(#879)
  ,#872);
#879 = STYLED_ITEM('color',(#880),#15);
#880 = PRESENTATION_STYLE_ASSIGNMENT((#881,#887));
#881 = SURFACE_STYLE_USAGE(.BOTH.,#882);
#882 = SURFACE_SIDE_STYLE('',(#883));
#883 = SURFACE_STYLE_FILL_AREA(#884);
#884 = FILL_AREA_STYLE('',(#885));
#885 = FILL_AREA_STYLE_COLOUR('',#886);
#886 = COLOUR_RGB('',0.447059003357,0.474510015008,0.501960993452);
#887 = CURVE_STYLE('',#888,POSITIVE_LENGTH_MEASURE(0.1),#889);
#888 = DRAUGHTING_PRE_DEFINED_CURVE_FONT('continuous');
#889 = COLOUR_RGB('',9.803921802644E-02,9.803921802644E-02,
  9.803921802644E-02);
ENDSEC;
END-ISO-10303-21;
